<svg width="154" height="48" viewBox="164 16 154 48" xmlns="http://www.w3.org/2000/svg"><g fill="none" fill-rule="evenodd"><path fill="#003471" d="M164.361 63.891h153.442V16.34H164.36z"/><path d="M195.367 24.435l-6.039 12.095-5.953-12.095h-6.47l-4.573 31.304 8.714.008 1.811-12.59 6.471 12.65 6.557-12.734 1.812 12.666h8.627l-4.486-31.304h-6.47zm22.259 19.896h6.556v-8.304h-6.556v-3.27h10.267l-1.467-8.322H209.17v31.372h17.6l2.07-8.204h-11.215V44.33zm32.266-19.896h-19.67l-.863 7.986h6.557v23.318h8.282c.26 0 0-23.318 0-23.318h6.557l-.863-7.986zm43.51-.83c-9.15 0-16.591 7.394-16.591 16.482 0 9.09 7.442 16.483 16.59 16.483 9.15 0 16.593-7.394 16.593-16.483 0-9.088-7.443-16.483-16.592-16.483zm0 24.443c-4.316 0-7.827-3.572-7.827-7.96 0-4.39 3.511-7.961 7.827-7.961 4.315 0 7.827 3.571 7.827 7.96 0 4.39-3.512 7.96-7.827 7.96zm-18.508-13.01s1.203-10.603-10.303-10.603h-11.593V55.74h8.541V43.073l5.522 12.666h9.576l-6.125-13.336s4.382-2.534 4.382-7.365zm-8.455.427c.07 4.261-4.9 3.757-4.9 3.757V31.59h.172c5.453 0 4.728 3.876 4.728 3.876z" fill="#FFF"/><path fill="#ED1942" d="M164.348 49.298v-32.96h33.901z"/><path fill="#FFF" d="M170.75 33.222l1.174-1.142 1.418 1.38-1.167 1.134 1.915 1.861-1.648 1.602-5.4-5.25 2.922-2.84 1.487 1.445-1.282 1.246zm2.722-3.982l.946.92.137-.134c.046-.045.09-.1.134-.167a.524.524 0 0 0 .049-.47.72.72 0 0 0-.19-.275.844.844 0 0 0-.287-.197.592.592 0 0 0-.251-.037.465.465 0 0 0-.206.067.897.897 0 0 0-.15.115l-.182.178zm2.22 1.89l-.138.134 1.937 1.884-1.586 1.542-5.4-5.25 2.01-1.954c.31-.302.623-.526.936-.673.313-.146.62-.217.92-.212.3.004.596.076.886.214.29.138.57.339.838.6a2.568 2.568 0 0 1 .675 1.073c.053.17.08.33.08.479 0 .148-.022.277-.063.386l3.168 1.4-1.752 1.703-2.511-1.326zm-.748-6.006l2.883-2.802 1.457 1.416-1.304 1.268.54.526 1.183-1.15 1.35 1.314-1.182 1.149.564.548 1.404-1.364 1.487 1.446-2.982 2.9zm3.562-3.463l2.883-2.802 1.456 1.416-1.304 1.268.541.526 1.183-1.15 1.35 1.314-1.182 1.149.564.548 1.403-1.364 1.488 1.446-2.982 2.9z"/></g></svg>